HIERARCHY
ROOT Hips
{
	OFFSET 0.00000 0.00000 0.00000
	CHANNELS 6 Xposition Yposition Zposition Yrotation Zrotation Xrotation 
	JOINT Lumbar
	{
		OFFSET 0 0 0
		CHANNELS 3 Zrotation Xrotation Yrotation
		JOINT Neck
		{
			OFFSET 0.00 0.2701 0.00
			CHANNELS 3 Zrotation Xrotation Yrotation
			End Site
			{
				OFFSET 0.00 0.1379 0.00
			}
		}
		JOINT RightShoulder
		{
			OFFSET 0.0119 0.2289 0.1181
			CHANNELS 3 Zrotation Xrotation Yrotation
			JOINT RightElbow
			{
				OFFSET 0.00 -0.1475 0.00
				CHANNELS 2 Zrotation Yrotation
				JOINT RightWrist
				{
					OFFSET 0.00 -0.1605 0.00
					CHANNELS 2 Zrotation Xrotation
					End Site
					{
						OFFSET 0.0040 -0.1068 0.0006
					}
				}
			}
		}
		JOINT LeftShoulder
		{
			OFFSET 0.0119 0.2289 -0.1181
			CHANNELS 3 Zrotation Xrotation Yrotation
			JOINT LeftElbow
			{
				OFFSET 0.00 -0.1475 0.00
				CHANNELS 2 Zrotation Yrotation
				JOINT LeftWrist
				{
					OFFSET 0.00 -0.1605 0.00
					CHANNELS 2 Zrotation Xrotation
					End Site
					{
						OFFSET 0.0040 -0.1068 -0.0006
					}
				}
			}
		}
	}
	JOINT RightHip
	{
		OFFSET 0.0316 -0.0424 0.0458
		CHANNELS 3 Zrotation Xrotation Yrotation
		JOINT RightKnee
		{
			OFFSET 0.00 -0.2438 0.00
			CHANNELS 1 Zrotation
			JOINT RightAnkle
			{
				OFFSET 0.00 -0.2449 0.00
				CHANNELS 3 Zrotation Xrotation Yrotation
				End Site
				{
					OFFSET 0.1237 -0.0542 0.0051
				}
			}
		}
	}
	JOINT LeftHip
	{
		OFFSET 0.0316 -0.0424 -0.0458
		CHANNELS 3 Zrotation Xrotation Yrotation
		JOINT LeftKnee
		{
			OFFSET 0.00 -0.2438 0.00
			CHANNELS 1 Zrotation
			JOINT LeftAnkle
			{
				OFFSET 0.00 -0.2449 0.00
				CHANNELS 3 Zrotation Xrotation Yrotation
				End Site
				{
					OFFSET 0.1237 -0.0542 -0.0051
				}
			}
		}
	}
}
MOTION
Frames: 30
Frame Time: 0.02
0.14615 -0.15158 0.01207 181.60438 -29.95026 -0.39073 36.8243 0.67943 0.61222 -6.18669 -1.9096 -0.83075 38.3537 -44.75088 53.15374 99.39043 84.03339 5.02229 -2.23143 18.09018 23.7984 -42.52473 99.3857 -82.11034 5.39607 3.07422 97.04344 -11.36676 -8.22671 -77.22251 -7.75905 -3.17532 -2.34244 98.88904 12.08366 8.30238 -71.51902 -11.12618 3.867 2.90554
0.14619 -0.15157 0.01207 181.57879 -29.94265 -0.35307 36.74139 0.65632 0.67132 -6.20953 -1.91407 -0.83075 39.52252 -45.06833 54.93183 99.24355 84.12838 5.51086 -2.13385 18.17962 23.82123 -42.65 99.07823 -82.06865 6.26855 3.29729 97.04658 -11.34593 -8.1995 -77.20893 -7.76136 -3.17445 -2.34211 98.86148 12.11001 8.34703 -71.50586 -11.12781 3.87079 2.90668
0.14626 -0.15154 0.01207 181.54995 -29.92529 -0.30516 36.64318 0.62375 0.73144 -6.23236 -1.91954 -0.83075 41.04786 -45.50289 57.18349 99.12735 84.21159 6.05507 -2.02096 18.29479 23.85842 -42.81079 98.73755 -81.99212 7.17358 3.55091 97.03959 -11.32719 -8.16695 -77.18869 -7.76469 -3.17363 -2.34173 98.81659 12.14869 8.41683 -71.48693 -11.13032 3.87397 2.90696
0.14631 -0.15152 0.01207 181.52296 -29.91332 -0.26197 36.5538 0.59507 0.78599 -6.2533 -1.92468 -0.83075 42.38778 -45.86215 59.14202 99.01656 84.27779 6.59189 -1.93006 18.388 23.88258 -42.94796 98.41184 -81.92632 8.04748 3.78211 97.03804 -11.30763 -8.1359 -77.17224 -7.76763 -3.1726 -2.34128 98.7808 12.17962 8.47253 -71.47109 -11.13245 3.87735 2.90765
0.14638 -0.15151 0.01207 181.49411 -29.89727 -0.21868 36.4564 0.56826 0.8624 -6.2826 -1.92935 -0.83075 43.81976 -46.31339 61.42798 98.82654 84.4421 7.05935 -1.77635 18.52349 23.93368 -43.11643 98.08563 -81.88484 8.9941 4.04906 97.03294 -11.28786 -8.10974 -77.15252 -7.77023 -3.17223 -2.34118 98.74 12.21971 8.53903 -71.45331 -11.13459 3.88109 2.9083
0.14642 -0.15148 0.01207 181.46841 -29.88761 -0.17314 36.3724 0.53521 0.89316 -6.29395 -1.9352 -0.83075 45.15445 -46.60141 63.14775 98.80601 84.39518 7.68 -1.74892 18.57792 23.93271 -43.2288 97.7524 -81.78111 9.79752 4.24977 97.03304 -11.26878 -8.07164 -77.13804 -7.7738 -3.17056 -2.34037 98.70566 12.24384 8.58947 -71.43819 -11.13688 3.88393 2.90881
0.14637 -0.15142 0.0121 181.45319 -29.89552 -0.1236 36.32563 0.48783 0.80067 -6.2605 -1.94425 -0.83075 46.04286 -46.40811 63.1512 99.26874 83.8038 8.73571 -2.08164 18.396 23.77872 -43.17036 97.41489 -81.54442 10.17173 4.24912 97.04731 -11.25286 -8.00358 -77.13965 -7.77957 -3.16521 -2.33761 98.6911 12.21795 8.58588 -71.43188 -11.13936 3.88451 2.90921
0.14629 -0.15135 0.01213 181.44117 -29.91062 -0.0722 36.2935 0.43441 0.66167 -6.208 -1.95441 -0.83075 46.83665 -46.04636 62.57354 99.89632 82.9957 9.93791 -2.5402 18.13269 23.57262 -43.05522 97.07045 -81.24233 10.40377 4.18238 97.06761 -11.23739 -7.92346 -77.14675 -7.78631 -3.15856 -2.33414 98.68404 12.17599 8.56583 -71.42841 -11.14196 3.88421 2.9095
0.14623 -0.15128 0.01215 181.42705 -29.92398 -0.0218 36.25692 0.38333 0.54188 -6.1612 -1.96396 -0.83075 47.73417 -45.76408 62.288 100.43389 82.26031 11.05624 -2.93655 17.91098 23.39451 -42.9711 96.72482 -80.94801 10.7181 4.15343 97.08687 -11.2203 -7.84736 -77.15134 -7.79279 -3.15259 -2.33104 98.67497 12.1434 8.55579 -71.42361 -11.14449 3.88429 2.9098
0.14617 -0.15122 0.01218 181.41539 -29.93051 0.02965 36.21048 0.33354 0.43003 -6.12725 -1.97401 -0.83075 48.39211 -45.47637 61.90733 101.0377 81.62413 12.25141 -3.35499 17.67132 23.19989 -42.8673 96.39615 -80.738 10.96271 4.0942 97.09865 -11.20852 -7.77641 -77.15578 -7.7986 -3.14633 -2.3278 98.65928 12.10293 8.53644 -71.41886 -11.14707 3.88442 2.91022
0.14609 -0.15114 0.01221 181.3996 -29.95315 0.07914 36.18827 0.27989 0.29088 -6.06154 -1.98326 -0.83075 49.51649 -45.15489 61.57226 101.54046 80.74159 13.31829 -3.7557 17.44859 23.02563 -42.78899 96.03117 -80.3463 11.31375 4.08019 97.1275 -11.18667 -7.69302 -77.16191 -7.80596 -3.14024 -2.3246 98.65951 12.07439 8.53165 -71.41467 -11.14959 3.88424 2.91038
0.14598 -0.15103 0.01223 181.37001 -30.01821 0.12354 36.22926 0.21593 0.08535 -5.91688 -1.98997 -0.83075 51.9984 -44.81217 61.57624 101.73961 79.13064 14.01289 -4.09257 17.29973 22.93322 -42.80848 95.56607 -79.39014 12.03262 4.22249 97.20265 -11.12908 -7.56884 -77.17156 -7.81772 -3.13603 -2.3223 98.70083 12.087 8.57608 -71.41195 -11.15181 3.8835 2.9099
0.14586 -0.1509 0.01225 181.3365 -30.09936 0.16569 36.29423 0.14861 -0.14556 -5.74007 -1.99583 -0.83075 54.94327 -44.43566 61.6319 101.82845 77.29703 14.56872 -4.40463 17.16945 22.86087 -42.8531 95.06538 -78.26721 12.85619 4.40989 97.29471 -11.0627 -7.43424 -77.18272 -7.83093 -3.13186 -2.31996 98.75821 12.11137 8.63475 -71.40959 -11.15398 3.88246 2.90917
0.14574 -0.15078 0.01227 181.3058 -30.17336 0.20836 36.34839 0.08358 -0.36334 -5.57543 -2.0021 -0.83075 57.643 -44.05287 61.61321 101.95708 75.6332 15.17739 -4.71733 17.02556 22.77054 -42.87683 94.58182 -77.27375 13.60575 4.56603 97.37864 -11.00558 -7.31074 -77.19311 -7.84322 -3.12695 -2.31722 98.80895 12.12744 8.68344 -71.40666 -11.15625 3.88149 2.90855
0.14562 -0.15065 0.01229 181.2707 -30.24682 0.25334 36.4027 0.01496 -0.58965 -5.4208 -2.00835 -0.83075 60.4833 -43.75261 61.78364 102.13441 73.67695 15.83847 -5.07813 16.89986 22.71487 -42.9376 94.09289 -76.05561 14.46122 4.76399 97.46458 -10.92664 -7.16041 -77.20406 -7.85663 -3.12496 -2.31616 98.85704 12.15524 8.74611 -71.40551 -11.15819 3.88079 2.90795
0.14551 -0.15053 0.01231 181.24399 -30.32522 0.29279 36.46216 -0.04671 -0.80341 -5.23746 -2.01439 -0.83075 63.14578 -43.27837 61.58705 102.1829 72.27377 16.35039 -5.33269 16.74274 22.59362 -42.92913 93.60813 -75.26135 15.12374 4.88809 97.55037 -10.89056 -7.06305 -77.21411 -7.86805 -3.11699 -2.31165 98.9145 12.16186 8.78361 -71.40074 -11.16081 3.87945 2.90724
0.1454 -0.15038 0.01233 181.23979 -30.4127 0.31888 36.53029 -0.08996 -0.97785 -4.98674 -2.02016 -0.83075 65.16963 -42.30012 60.30466 101.89308 72.50551 16.5276 -5.28646 16.48604 22.27665 -42.71289 93.13251 -75.7254 15.22015 4.7827 97.63055 -10.97909 -7.11963 -77.22142 -7.87358 -3.09184 -2.29712 98.99294 12.10492 8.74508 -71.38567 -11.16513 3.87649 2.90637
0.14531 -0.15024 0.01234 181.24443 -30.50467 0.33922 36.60262 -0.12576 -1.13821 -4.7075 -2.02571 -0.83075 67.00452 -41.15464 58.66472 101.47813 73.29328 16.5509 -5.13596 16.19903 21.89512 -42.42823 92.6646 -76.61366 15.12079 4.60423 97.71015 -11.11029 -7.229 -77.22771 -7.87707 -3.06082 -2.27921 99.08041 12.02672 8.68134 -71.36696 -11.17015 3.87289 2.90538
0.14521 -0.1501 0.01235 181.24605 -30.59497 0.36131 36.67276 -0.16392 -1.30385 -4.43886 -2.03129 -0.83075 68.94995 -40.10752 57.23107 101.12616 73.79187 16.61526 -5.04151 15.93171 21.54977 -42.18213 92.20027 -77.27684 15.11699 4.46933 97.79068 -11.21929 -7.31092 -77.23437 -7.88152 -3.03293 -2.26318 99.16437 11.9598 8.63129 -71.35003 -11.17494 3.86953 2.9044
0.1451 -0.14994 0.01236 181.24334 -30.68431 0.38702 36.74501 -0.20657 -1.47537 -4.17937 -2.03718 -0.83075 70.81085 -38.96502 55.61573 100.74557 74.43411 16.79587 -4.91004 15.64 21.17605 -41.90575 91.70409 -78.06928 15.08947 4.29314 97.86902 -11.33985 -7.40704 -77.24152 -7.88587 -3.00306 -2.24569 99.24645 11.88655 8.57249 -71.33263 -11.17937 3.86633 2.90361
0.14501 -0.14981 0.01238 181.25177 -30.77646 0.40381 36.81347 -0.238 -1.63069 -3.89407 -2.04233 -0.83075 72.79251 -37.98158 54.2911 100.39513 74.91523 16.70079 -4.8308 15.3917 20.84603 -41.67534 91.27742 -78.69693 15.06283 4.1839 97.9515 -11.44654 -7.48627 -77.24734 -7.88993 -2.97595 -2.23044 99.33432 11.82115 8.52549 -71.31531 -11.18471 3.86268 2.90239
0.14499 -0.14974 0.01241 181.28921 -30.87547 0.39768 36.87101 -0.24059 -1.74686 -3.54807 -2.04577 -0.83075 75.18862 -37.4819 53.8767 100.16897 74.78997 15.87212 -4.92495 15.27054 20.65096 -41.59331 91.03347 -78.75392 15.09142 4.28662 98.04601 -11.50488 -7.50611 -77.24992 -7.89359 -2.95777 -2.22226 99.43631 11.78398 8.51961 -71.2993 -11.19238 3.85785 2.89996
0.14499 -0.14969 0.01244 181.33748 -30.97701 0.38272 36.92435 -0.23206 -1.84668 -3.17659 -2.04841 -0.83075 77.70326 -37.14767 53.76343 99.97618 74.48908 14.77399 -5.07469 15.19411 20.50233 -41.55895 90.86072 -78.63368 15.12578 4.4572 98.14451 -11.54774 -7.50719 -77.25115 -7.89704 -2.94263 -2.21644 99.54365 11.75522 8.52603 -71.28349 -11.20094 3.85262 2.89712
0.14498 -0.14962 0.01247 181.38056 -31.07722 0.37163 36.97911 -0.22841 -1.95248 -2.81457 -2.05123 -0.83075 80.13942 -36.73543 53.49876 99.7617 74.2867 13.80634 -5.19667 15.09714 20.3333 -41.49947 90.66043 -78.60292 15.15433 4.59059 98.24084 -11.59745 -7.51677 -77.25286 -7.90062 -2.9262 -2.20953 99.64828 11.72159 8.52514 -71.26746 -11.2091 3.84764 2.89452
0.14498 -0.14957 0.01249 181.42517 -31.17844 0.361 37.03614 -0.22528 -2.06402 -2.46042 -2.05485 -0.83075 82.67612 -36.32893 53.28238 99.56989 74.02547 12.7989 -5.32552 14.99982 20.15891 -41.45199 90.44021 -78.5483 15.1914 4.74872 98.33879 -11.64945 -7.52815 -77.25508 -7.90397 -2.90913 -2.20259 99.75452 11.69137 8.53039 -71.25177 -11.21729 3.84236 2.89171
0.14497 -0.1495 0.01252 181.46894 -31.27799 0.34733 37.08731 -0.21846 -2.15981 -2.0843 -2.05657 -0.83075 85.03027 -35.95233 53.04246 99.34098 73.83685 11.81296 -5.45468 14.91449 20.00774 -41.39202 90.27813 -78.49682 15.21234 4.87184 98.43416 -11.69243 -7.53081 -77.25594 -7.90778 -2.89422 -2.19631 99.85839 11.65668 8.52641 -71.23556 -11.22558 3.83759 2.88921
0.14493 -0.1494 0.01256 181.50875 -31.37319 0.32785 37.12383 -0.20481 -2.21664 -1.65337 -2.05355 -0.83075 86.88201 -35.61584 52.65826 98.99799 73.89878 10.94834 -5.57105 14.84954 19.90819 -41.2837 90.26095 -78.48637 15.2087 4.88665 98.52285 -11.71425 -7.51241 -77.2533 -7.91303 -2.88448 -2.19122 99.95561 11.60458 8.49139 -71.21721 -11.23432 3.8346 2.88791
0.14489 -0.14929 0.0126 181.54711 -31.46638 0.30556 37.15447 -0.18779 -2.25812 -1.20162 -2.04858 -0.83075 88.54049 -35.3051 52.24289 98.61817 74.03609 10.11641 -5.68629 14.79563 19.831 -41.16197 90.2995 -78.48486 15.18623 4.86346 98.60851 -11.72734 -7.48594 -77.24935 -7.91874 -2.87685 -2.18673 100.04993 11.54835 8.44725 -71.19849 -11.24305 3.8321 2.8869
0.14485 -0.14919 0.01263 181.58545 -31.55992 0.28427 37.18741 -0.17191 -2.30638 -0.75954 -2.04432 -0.83075 90.26904 -34.9845 51.84717 98.25764 74.13102 9.27263 -5.8027 14.73793 19.74458 -41.04805 90.31126 -78.48471 15.15855 4.85458 98.69467 -11.74423 -7.46394 -77.24605 -7.92418 -2.86833 -2.18201 100.14478 11.4961 8.40911 -71.18038 -11.25152 3.82922 2.88562
0.14481 -0.14908 0.01267 181.6271 -31.65612 0.26378 37.22173 -0.15717 -2.35501 -0.31486 -2.0408 -0.83075 92.07916 -34.6611 51.43827 97.8859 74.25305 8.40577 -5.91849 14.67644 19.65558 -40.92821 90.33149 -78.4569 15.18652 4.85989 98.78484 -11.76125 -7.4379 -77.24248 -7.92987 -2.85962 -2.1772 100.24331 11.43528 8.36359 -71.16038 -11.26113 3.82698 2.8849
